<?xml version="1.0" standalone="no"?>
<!DOCTYPE svg PUBLIC "-//W3C//DTD SVG 20010904//EN"
 "http://www.w3.org/TR/2001/REC-SVG-20010904/DTD/svg10.dtd">
<svg version="1.0" xmlns="http://www.w3.org/2000/svg"
 width="226.000000pt" height="208.000000pt" viewBox="0 0 226.000000 208.000000"
 preserveAspectRatio="xMidYMid meet">
<metadata>
Created by potrace 1.16, written by Peter Selinger 2001-2019
</metadata>
<g transform="translate(0.000000,208.000000) scale(0.100000,-0.100000)"
fill="#a0522d" stroke="none">
<path d="M1020 1733 c-147 -131 -321 -233 -515 -303 -49 -18 -98 -39 -107 -48
-17 -14 -18 -53 -18 -542 0 -396 3 -529 12 -538 21 -21 58 -14 68 14 6 15 10
175 10 383 0 264 3 360 12 369 16 16 113 15 126 -1 7 -8 12 -105 14 -265 3
-212 5 -254 18 -262 22 -14 36 -12 54 6 14 13 16 51 16 255 0 147 4 248 10
260 10 18 25 19 405 19 380 0 395 -1 405 -19 6 -12 10 -113 10 -259 0 -219 2
-240 18 -255 25 -22 49 -21 62 2 6 12 10 112 10 256 0 144 4 244 10 256 9 15
21 19 63 19 29 0 59 -5 67 -10 13 -8 15 -64 18 -389 3 -368 3 -380 22 -386 33
-10 57 3 64 37 8 42 6 997 -3 1027 -5 20 -25 32 -106 64 -240 93 -393 182
-535 313 -52 48 -88 74 -103 73 -13 0 -57 -31 -107 -76z"/>
</g>
</svg>
